<svg width="500" height="56" viewBox="0 0 500 56" fill="none" xmlns="http://www.w3.org/2000/svg">
<path fill-rule="evenodd" clip-rule="evenodd" d="M71.5753 10.3068C71.5753 5.8772 75.204 2.28625 79.6803 2.28625H117.504C121.98 2.28625 125.609 5.8772 125.609 10.3068V47.7363C125.609 52.1659 121.98 55.7569 117.504 55.7569H79.6803C75.204 55.7569 71.5753 52.1659 71.5753 47.7363V10.3068Z" fill="#DB0069"/>
<path d="M82.5499 41.1529L77.2984 40.4445L76.078 34.8873C76.078 34.8873 81.1884 36.4298 90.33 36.666C99.4715 36.9021 105.392 35.633 105.392 35.633C111.771 34.2653 112.644 28.6433 113.194 25.0982L113.201 25.054L114.302 14.7351L126.118 10.9251C131.37 9.74438 131.175 14.2313 127.091 15.4121L117.755 18.2459C117.171 33.3598 113.346 36.4298 111.336 37.8468C110.428 38.3978 108.652 39.2165 107.252 39.9722C113.67 49.4183 100.041 51.1064 101.417 41.1529H89.7465C93.053 51.0714 81.7278 48.909 82.5499 41.1529Z" fill="white"/>
<path d="M157.742 45.3671C158.682 45.3671 159.474 45.7089 160.117 46.3924C160.76 47.076 161.082 47.8987 161.082 48.8608C161.082 49.7975 160.76 50.5949 160.117 51.2532C159.474 51.9114 158.682 52.2405 157.742 52.2405H148.984C145.966 52.2405 143.381 51.1392 141.228 48.9367C139.076 46.7342 138 44.0886 138 41V22.3544C138 18.9114 139.138 16.1646 141.414 14.1139C143.789 12.038 147.055 11 151.211 11C155.318 11 158.558 12.038 160.933 14.1139C163.234 16.1899 164.385 18.962 164.385 22.4304V33.0633C164.385 34.3291 164.075 35.2785 163.457 35.9114C162.393 37 161.23 37.5443 159.969 37.5443H146.795V40.9241C146.795 42.2152 147.104 43.1646 147.723 43.7722C148.811 44.8354 149.962 45.3671 151.174 45.3671H157.742ZM155.59 22.3544C155.59 21.0886 155.281 20.1392 154.662 19.5063C153.573 18.3924 152.423 17.8354 151.211 17.8354C149.974 17.8354 149.034 18.1646 148.391 18.8228C147.327 19.9114 146.795 21.0886 146.795 22.3544V30.8987H155.59V22.3544Z" fill="white"/>
<path d="M193.256 19.8481C192.192 18.5063 190.893 17.8354 189.359 17.8354C188.023 17.8354 187.034 18.1646 186.39 18.8228C185.327 19.9114 184.795 21.0886 184.795 22.3544V40.9241C184.795 42.2152 185.104 43.1646 185.722 43.7722C186.811 44.8354 187.961 45.3671 189.174 45.3671H198.302C199.762 45.3671 200.789 46.0886 201.382 47.5316C201.556 47.9367 201.642 48.3797 201.642 48.8608C201.642 49.3165 201.556 49.7595 201.382 50.1899C201.209 50.5949 200.974 50.9494 200.677 51.2532C200.034 51.9114 199.243 52.2405 198.302 52.2405H186.984C183.966 52.2405 181.381 51.1392 179.228 48.9367C177.076 46.7342 176 44.0886 176 41V22.1646C176 18.8987 177.076 16.2658 179.228 14.2658C181.579 12.0886 184.894 11 189.174 11C194.938 11 198.785 12.3671 200.715 15.1013C201.333 15.9367 201.642 16.7848 201.642 17.6456C201.642 18.481 201.531 19.1772 201.308 19.7342C201.086 20.2658 200.776 20.7342 200.381 21.1392C199.539 22 198.587 22.4304 197.523 22.4304C195.791 22.4304 194.369 21.5696 193.256 19.8481Z" fill="white"/>
<path d="M214 22.1646C214 18.7468 215.138 16.038 217.414 14.038C219.789 12.0127 223.054 11 227.21 11C231.317 11 234.558 12.0127 236.933 14.038C239.234 16.0633 240.384 18.7975 240.384 22.2405V41.8734C240.384 47.1646 237.861 50.6203 232.814 52.2405C231.181 52.7468 229.313 53 227.21 53C225.132 53 223.277 52.7468 221.644 52.2405C220.011 51.7089 218.626 50.9494 217.488 49.962C215.162 47.9873 214 45.2532 214 41.7595V22.1646ZM231.589 22.3544C231.589 21.0886 231.28 20.1392 230.662 19.5063C229.573 18.3924 228.423 17.8354 227.21 17.8354C225.973 17.8354 225.033 18.1646 224.39 18.8228C223.326 19.9114 222.794 21.0886 222.794 22.3544V42.1013C222.794 43.3924 223.215 44.3924 224.056 45.1013C224.897 45.7848 225.936 46.1266 227.173 46.1266C228.435 46.1266 229.486 45.7848 230.328 45.1013C231.169 44.3924 231.589 43.3924 231.589 42.1013V22.3544Z" fill="white"/>
<path d="M260.534 51.3671C259.916 51.9747 259.335 52.3924 258.79 52.6203C258.271 52.8734 257.702 53 257.083 53C256.49 53 255.921 52.8861 255.376 52.6582C254.857 52.4304 254.399 52.1139 254.003 51.7089C253.137 50.8228 252.704 49.7722 252.704 48.557V15.557C252.704 14.3165 253.014 13.3544 253.632 12.6709C254.696 11.557 255.698 11 256.638 11C257.603 11 258.32 11.1013 258.79 11.3038C259.26 11.5063 259.656 11.7595 259.978 12.0633C260.398 12.443 260.708 12.8481 260.906 13.2785C261.128 13.7089 261.301 14.0253 261.425 14.2278C261.574 14.4304 261.796 14.5316 262.093 14.5316C262.415 14.5316 262.687 14.4304 262.909 14.2278L263.54 13.5823C265.346 11.8608 267.152 11 268.958 11C272.15 11 274.784 12.3418 276.863 15.0253C277.06 15.3038 277.308 15.443 277.605 15.443C278.124 15.443 278.644 15.038 279.163 14.2278C279.708 13.3924 280.573 12.6456 281.761 11.9873C282.948 11.3291 284.334 11 285.917 11C287.5 11 288.935 11.3038 290.222 11.9114C291.533 12.4937 292.671 13.3038 293.636 14.3418C295.665 16.519 296.679 19.1519 296.679 22.2405V48.557C296.679 50.481 295.788 51.8354 294.007 52.6203C293.463 52.8734 292.881 53 292.263 53C291.669 53 291.1 52.8861 290.556 52.6582C290.036 52.4304 289.579 52.1139 289.183 51.7089C288.342 50.7975 287.921 49.7468 287.921 48.557V22.3544C287.921 21.0886 287.612 20.1392 286.993 19.5063C285.905 18.3924 284.903 17.8354 283.987 17.8354C283.072 17.8354 282.355 17.962 281.835 18.2152C281.316 18.443 280.846 18.7722 280.425 19.2025C279.559 20.0886 279.126 21.1139 279.126 22.2785V48.557C279.126 50.481 278.248 51.8354 276.491 52.6203C275.947 52.8734 275.366 53 274.747 53C274.154 53 273.585 52.8861 273.04 52.6582C272.496 52.4304 272.026 52.1139 271.63 51.7089C270.764 50.8228 270.331 49.7722 270.331 48.557V22.3544C270.331 21.0886 270.022 20.1392 269.404 19.5063C268.315 18.3924 267.177 17.8354 265.99 17.8354C264.01 17.8354 262.637 18.6203 261.87 20.1899C261.623 20.6962 261.499 21.2658 261.499 21.8987V48.557C261.499 49.7975 261.178 50.7342 260.534 51.3671Z" fill="white"/>
<path d="M317.534 51.3671C316.916 51.9747 316.334 52.3924 315.79 52.6203C315.271 52.8734 314.702 53 314.083 53C313.489 53 312.92 52.8861 312.376 52.6582C311.856 52.4304 311.399 52.1139 311.003 51.7089C310.137 50.8228 309.704 49.7722 309.704 48.557V15.557C309.704 14.3165 310.013 13.3544 310.632 12.6709C311.696 11.557 312.698 11 313.638 11C314.603 11 315.32 11.1013 315.79 11.3038C316.26 11.5063 316.656 11.7595 316.978 12.0633C317.398 12.443 317.707 12.8481 317.905 13.2785C318.128 13.7089 318.301 14.0253 318.425 14.2278C318.573 14.4304 318.796 14.5316 319.093 14.5316C319.414 14.5316 319.687 14.4304 319.909 14.2278L320.54 13.5823C322.346 11.8608 324.152 11 325.958 11C329.149 11 331.784 12.3418 333.862 15.0253C334.06 15.3038 334.308 15.443 334.604 15.443C335.124 15.443 335.643 15.038 336.163 14.2278C336.707 13.3924 337.573 12.6456 338.761 11.9873C339.948 11.3291 341.334 11 342.917 11C344.5 11 345.935 11.3038 347.222 11.9114C348.533 12.4937 349.671 13.3038 350.636 14.3418C352.664 16.519 353.679 19.1519 353.679 22.2405V48.557C353.679 50.481 352.788 51.8354 351.007 52.6203C350.462 52.8734 349.881 53 349.263 53C348.669 53 348.1 52.8861 347.556 52.6582C347.036 52.4304 346.578 52.1139 346.182 51.7089C345.341 50.7975 344.921 49.7468 344.921 48.557V22.3544C344.921 21.0886 344.612 20.1392 343.993 19.5063C342.904 18.3924 341.903 17.8354 340.987 17.8354C340.072 17.8354 339.354 17.962 338.835 18.2152C338.315 18.443 337.845 18.7722 337.425 19.2025C336.559 20.0886 336.126 21.1139 336.126 22.2785V48.557C336.126 50.481 335.248 51.8354 333.491 52.6203C332.947 52.8734 332.365 53 331.747 53C331.153 53 330.584 52.8861 330.04 52.6582C329.496 52.4304 329.026 52.1139 328.63 51.7089C327.764 50.8228 327.331 49.7722 327.331 48.557V22.3544C327.331 21.0886 327.022 20.1392 326.403 19.5063C325.315 18.3924 324.177 17.8354 322.989 17.8354C321.01 17.8354 319.637 18.6203 318.87 20.1899C318.623 20.6962 318.499 21.2658 318.499 21.8987V48.557C318.499 49.7975 318.177 50.7342 317.534 51.3671Z" fill="white"/>
<path d="M385.741 45.3671C386.681 45.3671 387.473 45.7089 388.116 46.3924C388.759 47.076 389.081 47.8987 389.081 48.8608C389.081 49.7975 388.759 50.5949 388.116 51.2532C387.473 51.9114 386.681 52.2405 385.741 52.2405H376.983C373.965 52.2405 371.38 51.1392 369.227 48.9367C367.075 46.7342 365.999 44.0886 365.999 41V22.3544C365.999 18.9114 367.137 16.1646 369.413 14.1139C371.788 12.038 375.053 11 379.21 11C383.316 11 386.557 12.038 388.932 14.1139C391.233 16.1899 392.383 18.962 392.383 22.4304V33.0633C392.383 34.3291 392.074 35.2785 391.456 35.9114C390.392 37 389.229 37.5443 387.967 37.5443H374.794V40.9241C374.794 42.2152 375.103 43.1646 375.721 43.7722C376.81 44.8354 377.96 45.3671 379.173 45.3671H385.741ZM383.589 22.3544C383.589 21.0886 383.279 20.1392 382.661 19.5063C381.572 18.3924 380.422 17.8354 379.21 17.8354C377.973 17.8354 377.033 18.1646 376.389 18.8228C375.326 19.9114 374.794 21.0886 374.794 22.3544V30.8987H383.589V22.3544Z" fill="white"/>
<path d="M421.217 11C421.836 11 422.442 11.0886 423.036 11.2658C423.629 11.443 424.186 11.7215 424.705 12.1013C425.893 12.9873 426.487 14.2152 426.487 15.7848C426.487 17.0506 426.165 18 425.522 18.6329C424.409 19.7215 423.37 20.2658 422.405 20.2658C421.168 20.2658 420.042 19.8608 419.028 19.0506C418.236 18.519 417.345 18.2532 416.356 18.2532C415.366 18.2532 414.587 18.5823 414.018 19.2405C413.449 19.8734 413.165 20.6835 413.165 21.6709V48.519C413.165 49.7342 412.855 50.6709 412.237 51.3291C411.124 52.443 410.109 53 409.194 53C408.303 53 407.586 52.8734 407.042 52.6203C406.522 52.3924 406.064 52.076 405.668 51.6709C404.803 50.7848 404.37 49.7342 404.37 48.519V15.557C404.37 14.3165 404.691 13.3544 405.334 12.6709C406.374 11.557 407.363 11 408.303 11C409.268 11 409.986 11.1139 410.456 11.3418C410.926 11.5443 411.321 11.7848 411.643 12.0633C412.088 12.4684 412.41 12.8861 412.608 13.3165C412.806 13.7215 412.967 14.0253 413.09 14.2278C413.239 14.4304 413.461 14.5316 413.758 14.5316C414.08 14.5316 414.34 14.4304 414.538 14.2278L415.206 13.5823C417.135 11.8608 419.139 11 421.217 11Z" fill="white"/>
<path d="M452.871 19.8481C451.808 18.5063 450.509 17.8354 448.975 17.8354C447.639 17.8354 446.649 18.1646 446.006 18.8228C444.942 19.9114 444.41 21.0886 444.41 22.3544V40.9241C444.41 42.2152 444.72 43.1646 445.338 43.7722C446.427 44.8354 447.577 45.3671 448.789 45.3671H457.918C459.378 45.3671 460.405 46.0886 460.998 47.5316C461.171 47.9367 461.258 48.3797 461.258 48.8608C461.258 49.3165 461.171 49.7595 460.998 50.1899C460.825 50.5949 460.59 50.9494 460.293 51.2532C459.65 51.9114 458.858 52.2405 457.918 52.2405H446.6C443.582 52.2405 440.996 51.1392 438.844 48.9367C436.692 46.7342 435.616 44.0886 435.616 41V22.1646C435.616 18.8987 436.692 16.2658 438.844 14.2658C441.194 12.0886 444.509 11 448.789 11C454.554 11 458.401 12.3671 460.33 15.1013C460.949 15.9367 461.258 16.7848 461.258 17.6456C461.258 18.481 461.147 19.1772 460.924 19.7342C460.701 20.2658 460.392 20.7342 459.996 21.1392C459.155 22 458.203 22.4304 457.139 22.4304C455.407 22.4304 453.985 21.5696 452.871 19.8481Z" fill="white"/>
<path d="M493.357 45.3671C494.298 45.3671 495.089 45.7089 495.732 46.3924C496.376 47.076 496.697 47.8987 496.697 48.8608C496.697 49.7975 496.376 50.5949 495.732 51.2532C495.089 51.9114 494.298 52.2405 493.357 52.2405H484.6C481.581 52.2405 478.996 51.1392 476.844 48.9367C474.692 46.7342 473.615 44.0886 473.615 41V22.3544C473.615 18.9114 474.753 16.1646 477.029 14.1139C479.404 12.038 482.67 11 486.826 11C490.933 11 494.174 12.038 496.549 14.1139C498.85 16.1899 500 18.962 500 22.4304V33.0633C500 34.3291 499.691 35.2785 499.072 35.9114C498.008 37 496.846 37.5443 495.584 37.5443H482.41V40.9241C482.41 42.2152 482.719 43.1646 483.338 43.7722C484.427 44.8354 485.577 45.3671 486.789 45.3671H493.357ZM491.205 22.3544C491.205 21.0886 490.896 20.1392 490.277 19.5063C489.189 18.3924 488.038 17.8354 486.826 17.8354C485.589 17.8354 484.649 18.1646 484.006 18.8228C482.942 19.9114 482.41 21.0886 482.41 22.3544V30.8987H491.205V22.3544Z" fill="white"/>
<path d="M23.0966 45.4661C24.0388 45.4661 24.8198 45.8034 25.4397 46.4781C26.0596 47.1528 26.3695 47.9649 26.3695 48.9144C26.3695 49.839 26.0596 50.6261 25.4397 51.2758C24.8198 51.9255 24.0388 52.2504 23.0966 52.2504H18.6335C15.6085 52.2504 13.0174 51.1634 10.8602 48.9894C8.72785 46.8404 7.66167 44.2291 7.66167 41.1556V18.8911H3.27295C1.85963 18.8911 0.855429 18.2164 0.260348 16.867C0.0867826 16.4672 0 16.0424 0 15.5926C0 14.1683 0.669466 13.1563 2.0084 12.5566C2.40512 12.3817 2.82663 12.2942 3.27295 12.2942H7.66167V4.49788C7.66167 2.52381 8.55429 1.14946 10.3395 0.374823C10.8602 0.124941 11.4305 0 12.0504 0C13.2653 0 14.1828 0.324847 14.8026 0.97454C15.8936 2.04903 16.4391 3.22348 16.4391 4.49788V12.2942H23.171C24.0388 12.2942 24.7083 12.5316 25.1794 13.0064C25.9728 13.806 26.3695 14.6681 26.3695 15.5926C26.3695 16.4922 26.0596 17.2669 25.4397 17.9165C24.8198 18.5662 24.0636 18.8911 23.171 18.8911H16.4391V41.0806C16.4391 42.33 16.7614 43.2546 17.4061 43.8543C18.4971 44.9288 19.6377 45.4661 20.8278 45.4661H23.0966Z" fill="white"/>
<path d="M54.1152 13.1938C54.7598 12.5691 55.3425 12.1443 55.8632 11.9194C56.4087 11.6695 56.979 11.5446 57.5741 11.5446C58.194 11.5446 58.7643 11.657 59.2849 11.8819C59.8304 12.1068 60.3015 12.4191 60.6983 12.819C61.5661 13.6935 62 14.7306 62 15.93V48.5021C62 49.7265 61.6901 50.6761 61.0702 51.3508C60.004 52.4503 58.9874 53 58.0204 53C57.0782 53 56.3715 52.8876 55.9004 52.6627C55.4293 52.4628 55.045 52.2254 54.7475 51.9505C54.2763 51.5507 53.9416 51.1509 53.7433 50.7511C53.5697 50.3263 53.4085 50.0139 53.2598 49.814C53.111 49.6141 52.8754 49.5141 52.5531 49.5141C52.2556 49.5141 52.0076 49.6266 51.8092 49.8515C51.6109 50.0514 51.2885 50.3762 50.8422 50.826C49.3545 52.2753 47.7181 53 45.9328 53C44.1724 53 42.6971 52.7126 41.5069 52.1379C40.3167 51.5382 39.2753 50.7261 38.3827 49.7016C36.4983 47.5276 35.5561 44.9288 35.5561 41.9052V15.93C35.5561 14.0309 36.4487 12.694 38.234 11.9194C38.7547 11.6695 39.3125 11.5446 39.9076 11.5446C40.5275 11.5446 41.1102 11.657 41.6557 11.8819C42.2012 12.1068 42.6723 12.4191 43.069 12.819C43.9368 13.6935 44.3707 14.7306 44.3707 15.93V41.7928C44.3707 43.0422 44.6807 43.9793 45.3005 44.604C46.3915 45.7034 47.5321 46.2532 48.7223 46.2532C50.6811 46.2532 52.0448 45.4785 52.8134 43.9293C53.0614 43.4295 53.1854 42.8673 53.1854 42.2426V15.93C53.1854 14.7056 53.4953 13.7935 54.1152 13.1938Z" fill="white"/>
</svg>
