<?xml version="1.0" standalone="no"?>
<!DOCTYPE svg PUBLIC "-//W3C//DTD SVG 20010904//EN"
 "http://www.w3.org/TR/2001/REC-SVG-20010904/DTD/svg10.dtd">
<svg version="1.0" xmlns="http://www.w3.org/2000/svg"
 width="192.000000pt" height="192.000000pt" viewBox="0 0 192.000000 192.000000"
 preserveAspectRatio="xMidYMid meet">

<g transform="translate(0.000000,192.000000) scale(0.100000,-0.100000)"
fill="#000000" stroke="none">
<path d="M196 1904 c-36 -11 -65 -31 -107 -73 -94 -95 -90 -51 -87 -887 l3
-719 28 -57 c16 -32 46 -73 69 -92 79 -68 52 -66 863 -66 l732 0 61 31 c64 32
110 79 140 146 15 34 17 94 20 652 2 497 0 613 -10 609 -7 -3 -70 -24 -139
-47 l-126 -42 -12 -132 c-21 -226 -60 -374 -125 -472 -40 -61 -74 -88 -166
-136 -36 -18 -66 -34 -68 -35 -2 -1 8 -24 22 -51 49 -98 43 -177 -18 -214
-100 -61 -213 20 -221 160 l-4 56 -201 3 -202 2 9 -42 c13 -68 8 -127 -14
-157 -43 -57 -119 -53 -188 10 -46 42 -62 76 -68 144 l-4 40 -91 14 -91 14
-22 94 c-11 52 -19 96 -16 99 2 2 35 -2 73 -10 154 -32 264 -41 509 -41 378 0
521 28 612 117 79 78 108 179 141 493 l17 170 204 59 203 60 -7 50 c-10 77
-42 142 -95 189 -88 80 -59 77 -864 76 -603 0 -718 -3 -760 -15z"/>
</g>
</svg>
